<!DOCTYPE svg PUBLIC "-//W3C//DTD SVG 1.1//EN" "http://www.w3.org/Graphics/SVG/1.1/DTD/svg11.dtd">
<svg style="stroke-linecap:square;" xmlns="http://www.w3.org/2000/svg" xmlns:xlink="http://www.w3.org/1999/xlink" width="1639" height="737">
<defs><clipPath id="clip-0"><path d="M 0 0 L 1639 0 L 1639 737 L 0 737 L 0 0 M 0 0"/></clipPath>
<clipPath id="clip-1"><path d="M 1147.75 174.25 L 1147.75 1813.25 L 410.75 1813.25 L 410.75 174.25 L 1147.75 174.25 M 1147.75 174.25"/></clipPath>
<clipPath id="clip-2"><path d="M 1909.25 -587.25 L 1909.25 1051.75 L 1172.25 1051.75 L 1172.25 -587.25 L 1909.25 -587.25 M 1909.25 -587.25"/></clipPath>
<clipPath id="clip-3"><path d="M 367.27 322.73 L 367.27 1961.73 L -369.73 1961.73 L -369.73 322.73 L 367.27 322.73 M 367.27 322.73"/></clipPath>
<clipPath id="clip-4"><path d="M 106 41 L 106 649 L 1629 649 L 1629 41 M 106 41"/></clipPath>
</defs>
<rect x="0" y="0" width="1639" height="737" style="fill: rgb(255,255,255);fill-opacity: 1" transform="matrix(1,0,0,1,0,0)" clip-path="url(#clip-0)"/><g transform="matrix(1,0,0,1,0,0)"><text x="535.5" y="25.85" style="fill: rgb(75,75,109); font-family: sans-serif; font-size: 16px; font-weight: bold; " text-rendering="auto" clip-path="url(#clip-0)">Dimensions of the gender partition in the ENGENDER122 corpus</text></g><rect x="106" y="41" width="1523" height="608" style="fill: rgb(255,255,255);fill-opacity: 1" transform="matrix(1,0,0,1,0,0)" clip-path="url(#clip-0)"/><line x1="106" y1="649" x2="1629" y2="649" style="stroke-width: 1.0;stroke: rgb(192,208,224);stroke-opacity: 1;" transform="matrix(1,0,0,1,0,0)" clip-path="url(#clip-0)"/><g transform="matrix(0,-1,1,0,-174.25,1147.75)"><text x="442.75" y="664.81" style="fill: rgb(102,102,102); font-family: sans-serif; font-size: 11px; font-weight: bold; " text-rendering="auto" clip-path="url(#clip-1)">female</text></g><line x1="867.5" y1="654" x2="867.5" y2="649" style="stroke-width: 1.0;stroke: rgb(192,208,224);stroke-opacity: 1;" transform="matrix(1,0,0,1,0,0)" clip-path="url(#clip-0)"/><line x1="106" y1="654" x2="106" y2="649" style="stroke-width: 1.0;stroke: rgb(192,208,224);stroke-opacity: 1;" transform="matrix(1,0,0,1,0,0)" clip-path="url(#clip-0)"/><g transform="matrix(0,-1,1,0,587.25,1909.25)"><text x="1217.25" y="664.81" style="fill: rgb(102,102,102); font-family: sans-serif; font-size: 11px; font-weight: bold; " text-rendering="auto" clip-path="url(#clip-2)">male</text></g><line x1="1629" y1="654" x2="1629" y2="649" style="stroke-width: 1.0;stroke: rgb(192,208,224);stroke-opacity: 1;" transform="matrix(1,0,0,1,0,0)" clip-path="url(#clip-0)"/><g transform="matrix(1,0,0,1,0,0)"><text x="850" y="719.92" style="fill: rgb(77,117,158); font-family: sans-serif; font-size: 15px; font-weight: bold; " text-rendering="auto" clip-path="url(#clip-0)">Part</text></g><g transform="matrix(1,0,0,1,0,0)"><text x="92" y="652.81" style="fill: rgb(102,102,102); font-family: sans-serif; font-size: 11px; font-weight: bold; " text-rendering="auto" clip-path="url(#clip-0)">0</text></g><g transform="matrix(1,0,0,1,0,0)"><text x="48" y="619.81" style="fill: rgb(102,102,102); font-family: sans-serif; font-size: 11px; font-weight: bold; " text-rendering="auto" clip-path="url(#clip-0)">500,000</text></g><g transform="matrix(1,0,0,1,0,0)"><text x="36" y="586.82" style="fill: rgb(102,102,102); font-family: sans-serif; font-size: 11px; font-weight: bold; " text-rendering="auto" clip-path="url(#clip-0)">1,000,000</text></g><g transform="matrix(1,0,0,1,0,0)"><text x="36" y="553.82" style="fill: rgb(102,102,102); font-family: sans-serif; font-size: 11px; font-weight: bold; " text-rendering="auto" clip-path="url(#clip-0)">1,500,000</text></g><g transform="matrix(1,0,0,1,0,0)"><text x="36" y="520.83" style="fill: rgb(102,102,102); font-family: sans-serif; font-size: 11px; font-weight: bold; " text-rendering="auto" clip-path="url(#clip-0)">2,000,000</text></g><g transform="matrix(1,0,0,1,0,0)"><text x="36" y="487.84" style="fill: rgb(102,102,102); font-family: sans-serif; font-size: 11px; font-weight: bold; " text-rendering="auto" clip-path="url(#clip-0)">2,500,000</text></g><g transform="matrix(1,0,0,1,0,0)"><text x="36" y="454.84" style="fill: rgb(102,102,102); font-family: sans-serif; font-size: 11px; font-weight: bold; " text-rendering="auto" clip-path="url(#clip-0)">3,000,000</text></g><g transform="matrix(1,0,0,1,0,0)"><text x="36" y="421.85" style="fill: rgb(102,102,102); font-family: sans-serif; font-size: 11px; font-weight: bold; " text-rendering="auto" clip-path="url(#clip-0)">3,500,000</text></g><g transform="matrix(1,0,0,1,0,0)"><text x="36" y="388.85" style="fill: rgb(102,102,102); font-family: sans-serif; font-size: 11px; font-weight: bold; " text-rendering="auto" clip-path="url(#clip-0)">4,000,000</text></g><g transform="matrix(1,0,0,1,0,0)"><text x="36" y="355.86" style="fill: rgb(102,102,102); font-family: sans-serif; font-size: 11px; font-weight: bold; " text-rendering="auto" clip-path="url(#clip-0)">4,500,000</text></g><g transform="matrix(1,0,0,1,0,0)"><text x="36" y="322.86" style="fill: rgb(102,102,102); font-family: sans-serif; font-size: 11px; font-weight: bold; " text-rendering="auto" clip-path="url(#clip-0)">5,000,000</text></g><g transform="matrix(1,0,0,1,0,0)"><text x="36" y="289.87" style="fill: rgb(102,102,102); font-family: sans-serif; font-size: 11px; font-weight: bold; " text-rendering="auto" clip-path="url(#clip-0)">5,500,000</text></g><g transform="matrix(1,0,0,1,0,0)"><text x="36" y="256.87" style="fill: rgb(102,102,102); font-family: sans-serif; font-size: 11px; font-weight: bold; " text-rendering="auto" clip-path="url(#clip-0)">6,000,000</text></g><g transform="matrix(1,0,0,1,0,0)"><text x="36" y="223.88" style="fill: rgb(102,102,102); font-family: sans-serif; font-size: 11px; font-weight: bold; " text-rendering="auto" clip-path="url(#clip-0)">6,500,000</text></g><g transform="matrix(1,0,0,1,0,0)"><text x="36" y="190.89" style="fill: rgb(102,102,102); font-family: sans-serif; font-size: 11px; font-weight: bold; " text-rendering="auto" clip-path="url(#clip-0)">7,000,000</text></g><g transform="matrix(1,0,0,1,0,0)"><text x="36" y="157.89" style="fill: rgb(102,102,102); font-family: sans-serif; font-size: 11px; font-weight: bold; " text-rendering="auto" clip-path="url(#clip-0)">7,500,000</text></g><g transform="matrix(1,0,0,1,0,0)"><text x="36" y="124.9" style="fill: rgb(102,102,102); font-family: sans-serif; font-size: 11px; font-weight: bold; " text-rendering="auto" clip-path="url(#clip-0)">8,000,000</text></g><g transform="matrix(1,0,0,1,0,0)"><text x="36" y="91.9" style="fill: rgb(102,102,102); font-family: sans-serif; font-size: 11px; font-weight: bold; " text-rendering="auto" clip-path="url(#clip-0)">8,500,000</text></g><g transform="matrix(0,-1,1,0,-322.730469,367.269531)"><text x="-48.73" y="350.19" style="fill: rgb(77,117,158); font-family: sans-serif; font-size: 15px; font-weight: bold; " text-rendering="auto" clip-path="url(#clip-3)">Number of words</text></g><line x1="106" y1="649" x2="1629" y2="649" style="stroke-width: 1.0;stroke: rgb(192,192,192);stroke-opacity: 1;" transform="matrix(1,0,0,1,0,0)" clip-path="url(#clip-4)"/><line x1="106" y1="616.01" x2="1629" y2="616.01" style="stroke-width: 1.0;stroke: rgb(192,192,192);stroke-opacity: 1;" transform="matrix(1,0,0,1,0,0)" clip-path="url(#clip-4)"/><line x1="106" y1="583.01" x2="1629" y2="583.01" style="stroke-width: 1.0;stroke: rgb(192,192,192);stroke-opacity: 1;" transform="matrix(1,0,0,1,0,0)" clip-path="url(#clip-4)"/><line x1="106" y1="550.02" x2="1629" y2="550.02" style="stroke-width: 1.0;stroke: rgb(192,192,192);stroke-opacity: 1;" transform="matrix(1,0,0,1,0,0)" clip-path="url(#clip-4)"/><line x1="106" y1="517.02" x2="1629" y2="517.02" style="stroke-width: 1.0;stroke: rgb(192,192,192);stroke-opacity: 1;" transform="matrix(1,0,0,1,0,0)" clip-path="url(#clip-4)"/><line x1="106" y1="484.03" x2="1629" y2="484.03" style="stroke-width: 1.0;stroke: rgb(192,192,192);stroke-opacity: 1;" transform="matrix(1,0,0,1,0,0)" clip-path="url(#clip-4)"/><line x1="106" y1="451.03" x2="1629" y2="451.03" style="stroke-width: 1.0;stroke: rgb(192,192,192);stroke-opacity: 1;" transform="matrix(1,0,0,1,0,0)" clip-path="url(#clip-4)"/><line x1="106" y1="418.04" x2="1629" y2="418.04" style="stroke-width: 1.0;stroke: rgb(192,192,192);stroke-opacity: 1;" transform="matrix(1,0,0,1,0,0)" clip-path="url(#clip-4)"/><line x1="106" y1="385.04" x2="1629" y2="385.04" style="stroke-width: 1.0;stroke: rgb(192,192,192);stroke-opacity: 1;" transform="matrix(1,0,0,1,0,0)" clip-path="url(#clip-4)"/><line x1="106" y1="352.05" x2="1629" y2="352.05" style="stroke-width: 1.0;stroke: rgb(192,192,192);stroke-opacity: 1;" transform="matrix(1,0,0,1,0,0)" clip-path="url(#clip-4)"/><line x1="106" y1="319.06" x2="1629" y2="319.06" style="stroke-width: 1.0;stroke: rgb(192,192,192);stroke-opacity: 1;" transform="matrix(1,0,0,1,0,0)" clip-path="url(#clip-4)"/><line x1="106" y1="286.06" x2="1629" y2="286.06" style="stroke-width: 1.0;stroke: rgb(192,192,192);stroke-opacity: 1;" transform="matrix(1,0,0,1,0,0)" clip-path="url(#clip-4)"/><line x1="106" y1="253.07" x2="1629" y2="253.07" style="stroke-width: 1.0;stroke: rgb(192,192,192);stroke-opacity: 1;" transform="matrix(1,0,0,1,0,0)" clip-path="url(#clip-4)"/><line x1="106" y1="220.07" x2="1629" y2="220.07" style="stroke-width: 1.0;stroke: rgb(192,192,192);stroke-opacity: 1;" transform="matrix(1,0,0,1,0,0)" clip-path="url(#clip-4)"/><line x1="106" y1="187.08" x2="1629" y2="187.08" style="stroke-width: 1.0;stroke: rgb(192,192,192);stroke-opacity: 1;" transform="matrix(1,0,0,1,0,0)" clip-path="url(#clip-4)"/><line x1="106" y1="154.08" x2="1629" y2="154.08" style="stroke-width: 1.0;stroke: rgb(192,192,192);stroke-opacity: 1;" transform="matrix(1,0,0,1,0,0)" clip-path="url(#clip-4)"/><line x1="106" y1="121.09" x2="1629" y2="121.09" style="stroke-width: 1.0;stroke: rgb(192,192,192);stroke-opacity: 1;" transform="matrix(1,0,0,1,0,0)" clip-path="url(#clip-4)"/><line x1="106" y1="88.09" x2="1629" y2="88.09" style="stroke-width: 1.0;stroke: rgb(192,192,192);stroke-opacity: 1;" transform="matrix(1,0,0,1,0,0)" clip-path="url(#clip-4)"/><rect x="220.22" y="122.44" width="533.05" height="526.56" style="fill: rgb(47,126,216);fill-opacity: 1" transform="matrix(1,0,0,1,0,0)" clip-path="url(#clip-4)"/><rect x="981.72" y="69.95" width="533.05" height="579.05" style="fill: rgb(47,126,216);fill-opacity: 1" transform="matrix(1,0,0,1,0,0)" clip-path="url(#clip-4)"/></svg>
